<svg xmlns="http://www.w3.org/2000/svg" xmlns:svg="http://www.w3.org/2000/svg" id="Capa_1" width="932.15" height="932.15" x="0" style="enable-background:new 0 0 932.15 932.15" y="0" version="1.1" viewBox="0 0 932.15 932.15" xml:space="preserve"><metadata id="metadata43"/><g id="g6" style="fill:#fff;fill-opacity:1"><path id="path2" d="M466.075,161.525c-205.6,0-382.8,121.2-464.2,296.1c-2.5,5.3-2.5,11.5,0,16.9c81.4,174.899,258.601,296.1,464.2,296.1 s382.8-121.2,464.2-296.1c2.5-5.3,2.5-11.5,0-16.9C848.875,282.725,671.675,161.525,466.075,161.525z M466.075,676.226 c-116.1,0-210.1-94.101-210.1-210.101c0-116.1,94.1-210.1,210.1-210.1c116.1,0,210.1,94.1,210.1,210.1 S582.075,676.226,466.075,676.226z" style="fill:#fff;fill-opacity:1"/><circle id="circle4" cx="466.075" cy="466.025" r="134.5" style="fill:#fff;fill-opacity:1"/></g></svg>