<svg xmlns="http://www.w3.org/2000/svg" xmlns:svg="http://www.w3.org/2000/svg" id="svg8" width="310" height="307.333" version="1.1" viewBox="0 0 82.021 81.315"><metadata id="metadata5"/><g id="layer1" transform="translate(-101.10863,-89.366173)"><path style="fill:#fff;stroke-width:.176389;fill-opacity:1" id="path847" d="m 108.74002,169.17481 c -3.02221,-0.81392 -5.51519,-3.3255 -6.30297,-6.34999 -0.23772,-0.91268 -0.27009,-4.87475 -0.27009,-33.06559 0,-34.927085 -0.0576,-32.896943 0.99135,-34.966843 0.62977,-1.242809 2.33198,-2.975034 3.57397,-3.637008 2.15312,-1.147602 0.37224,-1.08365 30.17692,-1.08365 h 27.08339 l 8.77469,8.776002 8.77469,8.775999 v 27.08208 c 0,29.52056 0.0516,27.96219 -0.99344,30.0244 -0.60021,1.18444 -2.53864,3.12287 -3.72308,3.72308 -2.0761,1.05204 -0.0218,0.99449 -35.05214,0.98183 -27.04994,-0.01 -32.25534,-0.0508 -33.03329,-0.26031 z m 37.18395,-9.24787 c 2.04003,-0.68348 3.39585,-1.49633 4.96531,-2.97689 1.6203,-1.52851 2.78002,-3.33484 3.50223,-5.45493 0.54778,-1.60807 0.58453,-1.86521 0.58543,-4.097 8.8e-4,-2.22768 -0.036,-2.48871 -0.57174,-4.04739 -0.71339,-2.0754 -1.52482,-3.42494 -2.9988,-4.98743 -1.52851,-1.6203 -3.33484,-2.78002 -5.45493,-3.50223 -1.60902,-0.5481 -1.8639,-0.58446 -4.09701,-0.58446 -2.23311,0 -2.48799,0.0364 -4.097,0.58446 -2.12009,0.72221 -3.92642,1.88193 -5.45493,3.50223 -1.47398,1.56249 -2.28541,2.91203 -2.9988,4.98743 -0.53545,1.55777 -0.5727,1.82102 -0.5727,4.04739 0,2.22636 0.0373,2.48962 0.5727,4.04738 0.71239,2.07251 1.52471,3.42482 2.9908,4.97895 1.43172,1.5177 3.14447,2.66373 4.98469,3.33532 1.94944,0.71146 2.93246,0.86184 5.12653,0.78425 1.51188,-0.0535 2.19203,-0.17277 3.51822,-0.61708 z m 9.15966,-52.21632 v -8.819447 h -22.04861 -22.04861 v 8.819447 8.81944 h 22.04861 22.04861 z"/></g></svg>